<?xml version="1.0" standalone="no"?><!DOCTYPE svg PUBLIC "-//W3C//DTD SVG 1.1//EN" "http://www.w3.org/Graphics/SVG/1.1/DTD/svg11.dtd"><svg t="1734761343101" class="icon" viewBox="0 0 1024 1024" version="1.1" xmlns="http://www.w3.org/2000/svg" p-id="16247" width="16" height="16" xmlns:xlink="http://www.w3.org/1999/xlink"><path d="M508.928 587.776c-58.368 0-114.688-25.6-155.648-70.656-41.984-47.104-65.536-108.544-64.512-172.032 0-64.512 22.528-125.952 64.512-172.032s97.28-71.68 155.648-71.68c58.368 0 114.688 25.6 155.648 71.68 41.984 47.104 65.536 108.544 64.512 172.032 0 64.512-22.528 125.952-64.512 172.032s-97.28 70.656-155.648 70.656z m0-419.84C419.84 167.936 348.16 247.808 348.16 345.088S419.84 522.24 508.928 522.24s160.768-79.872 160.768-177.152-72.704-177.152-160.768-177.152zM808.96 921.6c-16.384 0-29.696-14.336-29.696-32.768 0-43.008-8.192-84.992-24.576-123.904-7.168-16.384 0-35.84 14.336-43.008 7.168-3.072 15.36-4.096 23.552-1.024 7.168 3.072 13.312 9.216 16.384 17.408 19.456 47.104 29.696 98.304 29.696 150.528 0 18.432-13.312 32.768-29.696 32.768z m-599.04 0c-16.384 0-29.696-14.336-29.696-32.768 0-49.152 9.216-96.256 25.6-141.312 16.384-43.008 39.936-81.92 70.656-115.712 29.696-32.768 65.536-59.392 104.448-77.824 39.936-18.432 83.968-28.672 128-28.672 56.32 0 112.64 16.384 161.792 46.08 14.336 9.216 19.456 28.672 11.264 45.056-3.072 7.168-10.24 13.312-17.408 15.36-8.192 2.048-16.384 1.024-23.552-3.072-39.936-24.576-84.992-37.888-132.096-37.888-148.48 0-269.312 133.12-269.312 296.96 0 19.456-13.312 33.792-29.696 33.792z m74.752-348.16c-98.304 0-179.2-89.088-179.2-197.632 0-108.544 79.872-197.632 179.2-197.632v65.536c-65.536 0-119.808 59.392-119.808 131.072 0 72.704 53.248 131.072 119.808 131.072V573.44zM50.176 834.56C33.792 834.56 20.48 819.2 20.48 800.768c0-77.824 27.648-150.528 77.824-205.824 50.176-55.296 116.736-84.992 187.392-84.992 16.384 0 29.696 14.336 29.696 32.768 0 18.432-13.312 32.768-29.696 32.768-112.64 0-204.8 101.376-204.8 225.28-1.024 18.432-14.336 33.792-30.72 33.792zM739.328 573.44v-65.536c65.536 0 119.808-59.392 119.808-131.072 0-72.704-53.248-131.072-119.808-131.072v-65.536c98.304 0 179.2 88.064 179.2 197.632 0 106.496-79.872 195.584-179.2 195.584z m234.496 261.12c-16.384 0-29.696-14.336-29.696-32.768 0-123.904-92.16-225.28-204.8-225.28-16.384 0-29.696-14.336-29.696-32.768 0-18.432 13.312-32.768 29.696-32.768 70.656 0 137.216 30.72 187.392 84.992 50.176 56.32 77.824 130.048 77.824 205.824-1.024 17.408-14.336 32.768-30.72 32.768z m0 0" p-id="16248" fill="#ffffff"></path></svg>