<?xml version="1.0" standalone="no"?><!DOCTYPE svg PUBLIC "-//W3C//DTD SVG 1.1//EN" "http://www.w3.org/Graphics/SVG/1.1/DTD/svg11.dtd"><svg t="1734761306704" class="icon" viewBox="0 0 1024 1024" version="1.1" xmlns="http://www.w3.org/2000/svg" p-id="14015" width="16" height="16" xmlns:xlink="http://www.w3.org/1999/xlink"><path d="M733.866667 614.4h-34.133334c-10.24 0-17.066667-6.826667-17.066666-17.066667s6.826667-17.066667 17.066666-17.066666h34.133334c10.24 0 17.066667 6.826667 17.066666 17.066666s-6.826667 17.066667-17.066666 17.066667zM733.866667 853.333333h-443.733334c-10.24 0-17.066667-6.826667-17.066666-17.066666s6.826667-17.066667 17.066666-17.066667h443.733334c10.24 0 17.066667 6.826667 17.066666 17.066667s-6.826667 17.066667-17.066666 17.066666zM870.4 546.133333h-170.666667c-10.24 0-17.066667-6.826667-17.066666-17.066666v-204.8c0-10.24 6.826667-17.066667 17.066666-17.066667s17.066667 6.826667 17.066667 17.066667V512h153.6c10.24 0 17.066667 6.826667 17.066667 17.066667s-6.826667 17.066667-17.066667 17.066666z" fill="#ffffff" p-id="14016"></path><path d="M921.6 853.333333c-10.24 0-17.066667-6.826667-17.066667-17.066666s6.826667-17.066667 17.066667-17.066667c37.546667 0 68.266667-30.72 68.266667-71.68v-204.8l-27.306667-17.066667c-3.413333-3.413333-6.826667-6.826667-6.826667-13.653333v-170.666667c0-6.826667 3.413333-13.653333 10.24-13.653333l23.893334-13.653333V259.413333c-13.653333-10.24-27.306667-17.066667-44.373334-17.066666-3.413333 0-10.24-3.413333-10.24-3.413334l-88.746666-88.746666c-10.24-3.413333-44.373333-13.653333-54.613334-13.653334H546.133333v494.933334c0 10.24-6.826667 17.066667-17.066666 17.066666H98.986667l-58.026667 170.666667H102.4c10.24 0 17.066667 6.826667 17.066667 17.066667s-6.826667 17.066667-17.066667 17.066666H17.066667c-6.826667 0-10.24-3.413333-13.653334-6.826666-3.413333-6.826667-3.413333-10.24-3.413333-17.066667l68.266667-204.8c3.413333-6.826667 10.24-10.24 17.066666-10.24H512V119.466667c0-10.24 6.826667-17.066667 17.066667-17.066667h262.826666c10.24 0 64.853333 10.24 78.506667 27.306667l81.92 81.92c23.893333 3.413333 47.786667 13.653333 64.853333 30.72 3.413333 3.413333 6.826667 6.826667 6.826667 10.24v71.68c0 6.826667-3.413333 13.653333-10.24 13.653333l-23.893333 13.653333v150.186667l27.306666 17.066667c3.413333 3.413333 6.826667 10.24 6.826667 13.653333v215.04c0 58.026667-47.786667 105.813333-102.4 105.813333z" fill="#ffffff" p-id="14017"></path><path d="M221.866667 614.4h-68.266667c-10.24 0-17.066667-6.826667-17.066667-17.066667s6.826667-17.066667 17.066667-17.066666h68.266667c10.24 0 17.066667 6.826667 17.066666 17.066666s-6.826667 17.066667-17.066666 17.066667zM836.266667 273.066667h-204.8c-10.24 0-17.066667-6.826667-17.066667-17.066667s6.826667-17.066667 17.066667-17.066667h204.8c10.24 0 17.066667 6.826667 17.066666 17.066667s-6.826667 17.066667-17.066666 17.066667zM819.2 921.6c-58.026667 0-102.4-47.786667-102.4-102.4 0-58.026667 47.786667-102.4 102.4-102.4 58.026667 0 102.4 47.786667 102.4 102.4 0 58.026667-47.786667 102.4-102.4 102.4z m0-170.666667c-37.546667 0-68.266667 30.72-68.266667 68.266667s30.72 68.266667 68.266667 68.266667 68.266667-30.72 68.266667-68.266667-30.72-68.266667-68.266667-68.266667zM204.8 921.6c-58.026667 0-102.4-44.373333-102.4-102.4s44.373333-102.4 102.4-102.4 102.4 44.373333 102.4 102.4-47.786667 102.4-102.4 102.4z m0-170.666667c-37.546667 0-68.266667 30.72-68.266667 68.266667s30.72 68.266667 68.266667 68.266667 68.266667-30.72 68.266667-68.266667-30.72-68.266667-68.266667-68.266667z" fill="#ffffff" p-id="14018"></path></svg>